<svg version="1.1" xmlns="http://www.w3.org/2000/svg" viewBox="0 0 758.3359351524297 1796.3685274735367" width="758.3359351524297" height="1796.3685274735367">
  <!-- svg-source:excalidraw -->
  
  <defs>
    <style class="style-fonts">
      @font-face {
        font-family: "Virgil";
        src: url("https://excalidraw.com/Virgil.woff2");
      }
      @font-face {
        font-family: "Cascadia";
        src: url("https://excalidraw.com/Cascadia.woff2");
      }
      @font-face {
        font-family: "Assistant";
        src: url("https://excalidraw.com/Assistant-Regular.woff2");
      }
    </style>
    
  </defs>
  <rect x="0" y="0" width="758.3359351524297" height="1796.3685274735367" fill="#ffffff"></rect><g stroke-linecap="round" transform="translate(397.40583820227505 10) rotate(0 93.6524312150894 22)"><path d="M0 0 C39.23 -0.99, 78.13 1.09, 187.3 0 M0 0 C54.7 0.02, 108.18 -0.24, 187.3 0 M187.3 0 C188.91 17.33, 188.04 31.32, 187.3 44 M187.3 0 C186.73 9.56, 186.07 20.21, 187.3 44 M187.3 44 C136.3 46.13, 84.63 43.57, 0 44 M187.3 44 C123.21 45.13, 61.12 44.98, 0 44 M0 44 C-0.9 35.61, -0.98 23.7, 0 0 M0 44 C0 33.34, 1.08 20.25, 0 0" stroke="#1e1e1e" stroke-width="2" fill="none"></path></g><g transform="translate(418.9072092697288 19.5) rotate(0 72.15106014763552 12.5)"><text x="72.15106014763553" y="17.52" font-family="Virgil, Segoe UI Emoji" font-size="20px" fill="#1e1e1e" text-anchor="middle" style="white-space: pre;" direction="ltr" dominant-baseline="alphabetic">Queue Process</text></g><g stroke-linecap="round" transform="translate(261.3116038166763 133) rotate(0 81.13099153880529 22)"><path d="M0 0 C52.7 1.95, 101.73 -0.38, 162.26 0 M0 0 C56.59 -0.83, 113.44 -1.31, 162.26 0 M162.26 0 C163.26 14.99, 161.09 27.49, 162.26 44 M162.26 0 C161.22 14.21, 161.89 28.23, 162.26 44 M162.26 44 C108.28 44.19, 55.06 46.55, 0 44 M162.26 44 C106.4 44.41, 48.27 45.24, 0 44 M0 44 C-0.48 31.38, -0.59 20.07, 0 0 M0 44 C1.02 29.95, -0.35 16.87, 0 0" stroke="#1e1e1e" stroke-width="2" fill="none"></path></g><g transform="translate(279.31759535548156 142.5) rotate(0 63.125 12.5)"><text x="63.125" y="17.52" font-family="Virgil, Segoe UI Emoji" font-size="20px" fill="#1e1e1e" text-anchor="middle" style="white-space: pre;" direction="ltr" dominant-baseline="alphabetic">Process Pool</text></g><g stroke-linecap="round" transform="translate(221.7163999374293 256) rotate(0 120.72872006927241 22)"><path d="M0 0 C63.44 -2.17, 128.06 -0.25, 241.46 0 M0 0 C94.99 -1.18, 189.4 -0.69, 241.46 0 M241.46 0 C240.1 16.06, 241.87 34.43, 241.46 44 M241.46 0 C240.79 12.42, 241.38 23.66, 241.46 44 M241.46 44 C151.4 44.05, 60.85 41.89, 0 44 M241.46 44 C163.1 44.86, 85.79 43.91, 0 44 M0 44 C-0.57 27.44, 0.31 11.63, 0 0 M0 44 C-0.83 26.52, -1.27 8.6, 0 0" stroke="#1e1e1e" stroke-width="2" fill="none"></path></g><g transform="translate(246.1951200067017 265.5) rotate(0 96.25 12.5)"><text x="96.25" y="17.52" font-family="Virgil, Segoe UI Emoji" font-size="20px" fill="#1e1e1e" text-anchor="middle" style="white-space: pre;" direction="ltr" dominant-baseline="alphabetic">URL Cache Process</text></g><g stroke-linecap="round" transform="translate(121.81254685935505 1056.4928897480108) rotate(0 105.21235286909632 105.21204151454617)"><path d="M106 0 C145.24 40.82, 184.52 78.7, 210.42 106 M106 0 C145.03 39.37, 183.93 77.73, 210.42 106 M210.42 106 C175.74 138.9, 140.65 171.74, 106 210.42 M210.42 106 C174.67 142.68, 139.29 178.32, 106 210.42 M106 210.42 C80.29 183.95, 53.46 160.8, 0 106 M106 210.42 C74.05 179.14, 42.59 147.14, 0 106 M0 106 C27.6 79, 56.43 54.12, 106 0 M0 106 C26.62 78.58, 55.48 52.13, 106 0" stroke="#1e1e1e" stroke-width="2" fill="none"></path></g><g transform="translate(186.9777106871702 1136.598910505284) rotate(0 39.941012606732954 25)"><text x="39.941012606732976" y="17.52" font-family="Virgil, Segoe UI Emoji" font-size="20px" fill="#1e1e1e" text-anchor="middle" style="white-space: pre;" direction="ltr" dominant-baseline="alphabetic">GET </text><text x="39.941012606732976" y="42.519999999999996" font-family="Virgil, Segoe UI Emoji" font-size="20px" fill="#1e1e1e" text-anchor="middle" style="white-space: pre;" direction="ltr" dominant-baseline="alphabetic">Request</text></g><g stroke-linecap="round" transform="translate(104.89551079111448 1316.9240830290923) rotate(0 122.12923611675512 22)"><path d="M0 0 C62.93 -1.15, 123.91 -0.52, 244.26 0 M0 0 C78.43 -1.26, 155.49 -2.16, 244.26 0 M244.26 0 C243.65 8.24, 245.17 19.66, 244.26 44 M244.26 0 C245.16 16.16, 243.88 32.71, 244.26 44 M244.26 44 C155.23 43.92, 65.58 41.39, 0 44 M244.26 44 C149.95 43.23, 54.19 43.19, 0 44 M0 44 C1.93 33.81, -0.94 18.92, 0 0 M0 44 C1.35 30.8, -0.05 17.23, 0 0" stroke="#1e1e1e" stroke-width="2" fill="none"></path></g><g transform="translate(125.4146347773617 1326.4240830290923) rotate(0 101.6101121305079 12.5)"><text x="101.61011213050789" y="17.52" font-family="Virgil, Segoe UI Emoji" font-size="20px" fill="#1e1e1e" text-anchor="middle" style="white-space: pre;" direction="ltr" dominant-baseline="alphabetic">Parse Request Body</text></g><g stroke-linecap="round" transform="translate(106.27693545027114 1409.2574163624258) rotate(0 120.75 30)"><path d="M0 0 C89.62 0.6, 177.34 0.24, 241.5 0 M0 0 C91.08 -1.29, 181.12 -0.55, 241.5 0 M241.5 0 C242.16 15.9, 242.65 33.49, 241.5 60 M241.5 0 C241.43 19.4, 242.61 38.52, 241.5 60 M241.5 60 C184.6 60.15, 128.97 60.91, 0 60 M241.5 60 C174.9 59.11, 108.85 59.48, 0 60 M0 60 C-1.49 41.84, -0.47 23.59, 0 0 M0 60 C-1.02 44.08, -0.83 27.89, 0 0" stroke="#1e1e1e" stroke-width="2" fill="none"></path></g><g transform="translate(130.769774306837 1414.2574163624258) rotate(0 96.25716114343408 25)"><text x="96.25716114343408" y="17.52" font-family="Virgil, Segoe UI Emoji" font-size="20px" fill="#1e1e1e" text-anchor="middle" style="white-space: pre;" direction="ltr" dominant-baseline="alphabetic">Extract a tags &amp; </text><text x="96.25716114343408" y="42.519999999999996" font-family="Virgil, Segoe UI Emoji" font-size="20px" fill="#1e1e1e" text-anchor="middle" style="white-space: pre;" direction="ltr" dominant-baseline="alphabetic">href</text></g><g stroke-linecap="round" transform="translate(276.43945268039874 1504.9240830290923) rotate(0 99.20220582124045 22)"><path d="M0 0 C62.17 -0.42, 125.15 0.96, 198.4 0 M0 0 C65.38 1.62, 131.9 1.16, 198.4 0 M198.4 0 C199.94 9.77, 198.93 19.75, 198.4 44 M198.4 0 C198.84 13.7, 197.54 26.63, 198.4 44 M198.4 44 C126.11 41.75, 49.77 43.73, 0 44 M198.4 44 C144.53 43.39, 91.04 44.29, 0 44 M0 44 C0.32 24.83, -0.43 11.01, 0 0 M0 44 C-0.05 29.71, 0.09 16.05, 0 0" stroke="#1e1e1e" stroke-width="2" fill="none"></path></g><g transform="translate(293.53162040628763 1514.4240830290923) rotate(0 82.11003809535157 12.5)"><text x="82.11003809535158" y="17.52" font-family="Virgil, Segoe UI Emoji" font-size="20px" fill="#1e1e1e" text-anchor="middle" style="white-space: pre;" direction="ltr" dominant-baseline="alphabetic">Batcher Process</text></g><g stroke-linecap="round" transform="translate(312.4184947603982 1742.3685274735367) rotate(0 61 22)"><path d="M0 0 C44.19 1.6, 86 0.2, 122 0 M0 0 C27.15 -0.49, 53.91 0.27, 122 0 M122 0 C122.63 13.57, 122.3 23.08, 122 44 M122 0 C121.65 15.12, 123.02 29.88, 122 44 M122 44 C94.59 44.9, 67.62 42.69, 0 44 M122 44 C89.59 45.1, 58.37 43.66, 0 44 M0 44 C-0.66 34.53, 0.52 20.28, 0 0 M0 44 C0.01 30.82, -0.83 15.11, 0 0" stroke="#1e1e1e" stroke-width="2" fill="none"></path></g><g transform="translate(323.98611328141556 1751.8685274735367) rotate(0 49.43238147898262 12.5)"><text x="49.43238147898264" y="17.52" font-family="Virgil, Segoe UI Emoji" font-size="20px" fill="#1e1e1e" text-anchor="middle" style="white-space: pre;" direction="ltr" dominant-baseline="alphabetic">Database</text></g><g mask="url(#mask-3fNmybdGKIf2MJDtBv7Pi)" stroke-linecap="round"><g transform="translate(437.8945840471973 53.071428571428555) rotate(0 -50.73499520455073 36.90849716098046)"><path d="M1.17 0.4 C-14.74 6.59, -78.88 26.02, -95.12 38.1 C-111.37 50.17, -96.19 67.16, -96.3 72.86 M0.32 -0.44 C-15.75 5.8, -80.21 26.71, -95.9 39.16 C-111.6 51.61, -93.89 68.58, -93.85 74.26" stroke="#1e1e1e" stroke-width="2" fill="none"></path></g><g transform="translate(437.8945840471973 53.071428571428555) rotate(0 -50.73499520455073 36.90849716098046)"><path d="M-105.53 62.12 C-101.05 66.45, -99.03 68.79, -93.85 74.26 M-105.53 62.12 C-102.69 66.32, -98.47 70.33, -93.85 74.26" stroke="#1e1e1e" stroke-width="2" fill="none"></path></g><g transform="translate(437.8945840471973 53.071428571428555) rotate(0 -50.73499520455073 36.90849716098046)"><path d="M-95 57.45 C-93.93 63.41, -95.38 67.29, -93.85 74.26 M-95 57.45 C-95.46 63.08, -94.54 68.54, -93.85 74.26" stroke="#1e1e1e" stroke-width="2" fill="none"></path></g></g><mask id="mask-3fNmybdGKIf2MJDtBv7Pi"><rect x="0" y="0" fill="#fff" width="633.3455840471973" height="225.77142857142854"></rect><rect x="290.71160234015633" y="79.57142857142856" fill="#000" width="103.4639634140819" height="25" opacity="1"></rect></mask><g transform="translate(290.71160234015633 79.57142857142856) rotate(0 96.44798650249027 10.40849716098046)"><text x="51.73198170704095" y="17.52" font-family="Virgil, Segoe UI Emoji" font-size="20px" fill="#1e1e1e" text-anchor="middle" style="white-space: pre;" direction="ltr" dominant-baseline="alphabetic">Fetch URL</text></g><g mask="url(#mask-J55wYxEwbFFo1UzZktNAt)" stroke-linecap="round"><g transform="translate(318.98958404719724 177.5) rotate(0 -22.024199656027918 37.11174481042195)"><path d="M0.33 -0.9 C-7.26 5.56, -43.43 26.67, -44.36 39.16 C-45.28 51.64, -11.61 68.06, -5.22 74.02 M-0.96 1.24 C-8.27 7.88, -41.22 28.46, -42.09 40.78 C-42.95 53.09, -12.11 69.82, -6.15 75.13" stroke="#1e1e1e" stroke-width="2" fill="none"></path></g><g transform="translate(318.98958404719724 177.5) rotate(0 -22.024199656027918 37.11174481042195)"><path d="M-30.28 68.59 C-22.18 69.71, -10.83 73.19, -6.15 75.13 M-30.28 68.59 C-24.16 70.9, -17.14 72.14, -6.15 75.13" stroke="#1e1e1e" stroke-width="2" fill="none"></path></g><g transform="translate(318.98958404719724 177.5) rotate(0 -22.024199656027918 37.11174481042195)"><path d="M-20.43 54.61 C-16.2 61.31, -8.76 70.34, -6.15 75.13 M-20.43 54.61 C-17.07 60.7, -12.67 65.67, -6.15 75.13" stroke="#1e1e1e" stroke-width="2" fill="none"></path></g></g><mask id="mask-J55wYxEwbFFo1UzZktNAt"><rect x="0" y="0" fill="#fff" width="462.4975840471972" height="351.91499999999996"></rect><rect x="223.8293721387879" y="204" fill="#000" width="103.30442381681861" height="25" opacity="1"></rect></mask><g transform="translate(223.8293721387879 204) rotate(0 73.13601225238142 10.611744810421953)"><text x="51.652211908409306" y="17.52" font-family="Virgil, Segoe UI Emoji" font-size="20px" fill="#1e1e1e" text-anchor="middle" style="white-space: pre;" direction="ltr" dominant-baseline="alphabetic">Check URL</text></g><g mask="url(#mask-rH8biuxCCmk-ZHOBMbWeM)" stroke-linecap="round"><g transform="translate(347.5264300960479 301) rotate(0 -0.8873679828634522 35.163853954294694)"><path d="M-0.85 0.16 C-1.16 11.94, -1.32 58.04, -1.57 69.8 M0.91 -0.81 C0.38 11.23, -2.52 59.56, -2.68 71.13" stroke="#1e1e1e" stroke-width="2" fill="none"></path></g><g transform="translate(347.5264300960479 301) rotate(0 -0.8873679828634522 35.163853954294694)"><path d="M-10.27 47.31 C-7.71 54.63, -6.15 61.1, -2.68 71.13 M-10.27 47.31 C-7.4 55.6, -4.37 63.6, -2.68 71.13" stroke="#1e1e1e" stroke-width="2" fill="none"></path></g><g transform="translate(347.5264300960479 301) rotate(0 -0.8873679828634522 35.163853954294694)"><path d="M6.81 48.01 C3.8 54.98, -0.24 61.22, -2.68 71.13 M6.81 48.01 C3.82 56.17, 1 63.93, -2.68 71.13" stroke="#1e1e1e" stroke-width="2" fill="none"></path></g></g><mask id="mask-rH8biuxCCmk-ZHOBMbWeM"><rect x="0" y="0" fill="#fff" width="448.777997403738" height="471.202"></rect><rect x="283.873713542131" y="323.601" fill="#000" width="126.05386580014343" height="25" opacity="1"></rect></mask><g transform="translate(283.873713542131 323.601) rotate(0 62.76534857105344 12.562853954294695)"><text x="63.026932900071714" y="17.52" font-family="Virgil, Segoe UI Emoji" font-size="20px" fill="#1e1e1e" text-anchor="middle" style="white-space: pre;" direction="ltr" dominant-baseline="alphabetic">Not in Cache</text></g><g mask="url(#mask-I556Eyc6Z-L2omlSMNeCQ)" stroke-linecap="round"><g transform="translate(373.5815840471972 252.5) rotate(0 23.23638442107574 -35.06371497488615)"><path d="M-0.32 -0.4 C7.31 -5.91, 44.81 -21.68, 44.92 -32.91 C45.03 -44.15, 7.66 -61.89, 0.35 -67.81 M1.72 -1.65 C9.77 -7.54, 47.43 -23.42, 47.05 -34.77 C46.67 -46.11, 7.01 -64.32, -0.58 -69.73" stroke="#1e1e1e" stroke-width="2" fill="none"></path></g><g transform="translate(373.5815840471972 252.5) rotate(0 23.23638442107574 -35.06371497488615)"><path d="M24.05 -65.44 C17.73 -68.34, 13.6 -67.99, -0.58 -69.73 M24.05 -65.44 C15.74 -66.97, 5.42 -68.16, -0.58 -69.73" stroke="#1e1e1e" stroke-width="2" fill="none"></path></g><g transform="translate(373.5815840471972 252.5) rotate(0 23.23638442107574 -35.06371497488615)"><path d="M15.53 -50.61 C11.15 -56.89, 8.97 -59.94, -0.58 -69.73 M15.53 -50.61 C10.31 -57.61, 3.11 -64.24, -0.58 -69.73" stroke="#1e1e1e" stroke-width="2" fill="none"></path></g></g><mask id="mask-I556Eyc6Z-L2omlSMNeCQ"><rect x="0" y="0" fill="#fff" width="519.6160126186259" height="421.11985714285703"></rect><rect x="375.96596281849406" y="206.5714285714286" fill="#000" width="87.30009960026366" height="25" opacity="1"></rect></mask><g transform="translate(375.96596281849406 206.5714285714286) rotate(0 20.852005649778903 10.864856453685235)"><text x="43.65004980013183" y="17.52" font-family="Virgil, Segoe UI Emoji" font-size="20px" fill="#1e1e1e" text-anchor="middle" style="white-space: pre;" direction="ltr" dominant-baseline="alphabetic">In Cache</text></g><g stroke-linecap="round"><g transform="translate(227.5283087489795 1267.860222662652) rotate(0 -0.47129930435153256 21.942686665779377)"><path d="M-0.51 0.24 C-0.59 4.34, -0.68 17.25, -0.64 24.43 C-0.61 31.62, -0.41 40.22, -0.32 43.36 M0.23 -0.12 C0.07 3.85, -1.01 16.31, -1.15 23.66 C-1.28 31.01, -0.81 40.65, -0.58 44" stroke="#1e1e1e" stroke-width="2" fill="none"></path></g><g transform="translate(227.5283087489795 1267.860222662652) rotate(0 -0.47129930435153256 21.942686665779377)"><path d="M-4.36 35.18 C-3.13 37.49, -1.98 40.18, -0.58 44 M-4.36 35.18 C-3.25 38.07, -1.77 40.89, -0.58 44" stroke="#1e1e1e" stroke-width="2" fill="none"></path></g><g transform="translate(227.5283087489795 1267.860222662652) rotate(0 -0.47129930435153256 21.942686665779377)"><path d="M2.2 34.81 C1.63 37.19, 0.99 39.99, -0.58 44 M2.2 34.81 C1.23 37.82, 0.63 40.76, -0.58 44" stroke="#1e1e1e" stroke-width="2" fill="none"></path></g></g><mask></mask><g stroke-linecap="round"><g transform="translate(227.02691738053045 1361.9240830290923) rotate(0 0.31707981557610765 20.855541760740778)"><path d="M-0.14 0.37 C-0.03 7.27, 0.09 34.77, 0.18 41.63 M0.79 0.08 C0.89 6.79, -0.07 33.7, -0.16 40.71" stroke="#1e1e1e" stroke-width="2" fill="none"></path></g><g transform="translate(227.02691738053045 1361.9240830290923) rotate(0 0.31707981557610765 20.855541760740778)"><path d="M-6.78 21.03 C-4.69 25.44, -3.82 29.95, -0.16 40.71 M-6.78 21.03 C-4.51 27.16, -3.18 32.94, -0.16 40.71" stroke="#1e1e1e" stroke-width="2" fill="none"></path></g><g transform="translate(227.02691738053045 1361.9240830290923) rotate(0 0.31707981557610765 20.855541760740778)"><path d="M7.42 21.37 C6.56 25.7, 4.49 30.14, -0.16 40.71 M7.42 21.37 C5.43 27.44, 2.5 33.1, -0.16 40.71" stroke="#1e1e1e" stroke-width="2" fill="none"></path></g></g><mask></mask><g stroke-linecap="round"><g transform="translate(227.11522981263488 1475.5070989979818) rotate(0 23.436585993913752 15.439363207246345)"><path d="M0.39 0.2 C8.4 5.08, 40.1 25.02, 47.73 30.08 M-0.86 -0.74 C7.1 4.28, 39.6 26.75, 47.26 31.62" stroke="#1e1e1e" stroke-width="2" fill="none"></path></g><g transform="translate(227.11522981263488 1475.5070989979818) rotate(0 23.436585993913752 15.439363207246345)"><path d="M22.97 25.69 C30.01 28.75, 36.33 27.82, 47.26 31.62 M22.97 25.69 C30.6 27.8, 40.2 29.65, 47.26 31.62" stroke="#1e1e1e" stroke-width="2" fill="none"></path></g><g transform="translate(227.11522981263488 1475.5070989979818) rotate(0 23.436585993913752 15.439363207246345)"><path d="M32.46 11.46 C36.99 18.45, 40.72 21.42, 47.26 31.62 M32.46 11.46 C36.97 18.44, 43.36 25.11, 47.26 31.62" stroke="#1e1e1e" stroke-width="2" fill="none"></path></g></g><mask></mask><g mask="url(#mask-xhSjUKwUC26KQ8ZRFwkQP)" stroke-linecap="round"><g transform="translate(375.4256757820623 1549.9240830290923) rotate(0 -0.7315707223240224 93.03364133119828)"><path d="M0.91 0 C0.45 31.15, -2.06 155.91, -2.37 187.11 M-0.07 -1.04 C-0.17 29.73, 0.22 154.19, 0.01 185.23" stroke="#1e1e1e" stroke-width="2" fill="none"></path></g><g transform="translate(375.4256757820623 1549.9240830290923) rotate(0 -0.7315707223240224 93.03364133119828)"><path d="M-8.51 161.73 C-5.63 168.44, -2.02 178.62, 0.01 185.23 M-8.51 161.73 C-4.96 169.97, -3.51 178.99, 0.01 185.23" stroke="#1e1e1e" stroke-width="2" fill="none"></path></g><g transform="translate(375.4256757820623 1549.9240830290923) rotate(0 -0.7315707223240224 93.03364133119828)"><path d="M8.59 161.75 C5.78 168.59, 3.7 178.76, 0.01 185.23 M8.59 161.75 C6.18 170.02, 1.66 179.03, 0.01 185.23" stroke="#1e1e1e" stroke-width="2" fill="none"></path></g></g><mask id="mask-xhSjUKwUC26KQ8ZRFwkQP"><rect x="0" y="0" fill="#fff" width="477.17247547936677" height="1836.5684444444444"></rect><rect x="273.7506186843664" y="1618.2462637367682" fill="#000" width="201.60331449808746" height="50" opacity="1"></rect></mask><g transform="translate(273.7506186843664 1618.246263736768) rotate(0 100.94348637537189 24.711460623522385)"><text x="100.80165724904373" y="17.52" font-family="Virgil, Segoe UI Emoji" font-size="20px" fill="#1e1e1e" text-anchor="middle" style="white-space: pre;" direction="ltr" dominant-baseline="alphabetic">Insert Original URL </text><text x="100.80165724904373" y="42.519999999999996" font-family="Virgil, Segoe UI Emoji" font-size="20px" fill="#1e1e1e" text-anchor="middle" style="white-space: pre;" direction="ltr" dominant-baseline="alphabetic">to DB</text></g><g mask="url(#mask-B-a-UZowCPMROnivinjTg)" stroke-linecap="round"><g transform="translate(474.17513773188966 1503.9240830290923) rotate(0 83.43502579521919 -723.3351507521872)"><path d="M-0.62 0.47 C26.94 -116.35, 153.74 -459.65, 166.29 -700.91 C178.84 -942.18, 89.67 -1322.73, 74.67 -1447.14 M1.25 -0.34 C28.64 -117.51, 153.1 -461.84, 165.76 -702.73 C178.41 -943.62, 91.95 -1321.77, 77.17 -1445.68" stroke="#1e1e1e" stroke-width="2" fill="none"></path></g><g transform="translate(474.17513773188966 1503.9240830290923) rotate(0 83.43502579521919 -723.3351507521872)"><path d="M89.44 -1423.9 C85.6 -1430.83, 81.19 -1441.61, 77.17 -1445.68 M89.44 -1423.9 C84.53 -1430.02, 81.04 -1438.17, 77.17 -1445.68" stroke="#1e1e1e" stroke-width="2" fill="none"></path></g><g transform="translate(474.17513773188966 1503.9240830290923) rotate(0 83.43502579521919 -723.3351507521872)"><path d="M72.56 -1421.11 C75.07 -1429, 77 -1440.83, 77.17 -1445.68 M72.56 -1421.11 C73.07 -1428.14, 75.01 -1437.18, 77.17 -1445.68" stroke="#1e1e1e" stroke-width="2" fill="none"></path></g></g><mask id="mask-B-a-UZowCPMROnivinjTg"><rect x="0" y="0" fill="#fff" width="739.6715840471971" height="3051.3211660581846"></rect><rect x="531.0072329419646" y="777.424" fill="#000" width="217.32870221046508" height="50" opacity="1"></rect></mask><g transform="translate(531.0072329419646 777.424) rotate(0 26.602930585144236 3.1649322769051196)"><text x="108.66435110523254" y="17.52" font-family="Virgil, Segoe UI Emoji" font-size="20px" fill="#1e1e1e" text-anchor="middle" style="white-space: pre;" direction="ltr" dominant-baseline="alphabetic">Put Found URLs into </text><text x="108.66435110523254" y="42.519999999999996" font-family="Virgil, Segoe UI Emoji" font-size="20px" fill="#1e1e1e" text-anchor="middle" style="white-space: pre;" direction="ltr" dominant-baseline="alphabetic">Queue</text></g><g stroke-linecap="round" transform="translate(205.90231346822839 380.41444711964255) rotate(0 135.83333333333337 25)"><path d="M0 0 C61.21 -1.91, 123.94 0.28, 271.67 0 M0 0 C68.45 1.29, 136.88 0.4, 271.67 0 M271.67 0 C272.08 21.31, 272.29 38.05, 271.67 50 M271.67 0 C271.71 16.36, 271.62 31.48, 271.67 50 M271.67 50 C187.87 51.43, 102.76 51.1, 0 50 M271.67 50 C178.96 49.91, 84.88 50.14, 0 50 M0 50 C1.18 36.63, -0.6 28.24, 0 0 M0 50 C1.17 32.49, -0.37 14.87, 0 0" stroke="#1e1e1e" stroke-width="2" fill="none"></path></g><g transform="translate(211.70849074722037 392.91444711964255) rotate(0 130.0271560543414 12.5)"><text x="130.0271560543414" y="17.52" font-family="Virgil, Segoe UI Emoji" font-size="20px" fill="#1e1e1e" text-anchor="middle" style="white-space: pre;" direction="ltr" dominant-baseline="alphabetic">Robots.txt Cache Process</text></g><g mask="url(#mask-W9EfzPR-eu66K4_csPtBB)" stroke-linecap="round"><g transform="translate(338.3308848967995 435.79143124662824) rotate(0 -78 80)"><path d="M0 0 C-49.06 47.55, -95.4 95.26, -156 160 M0 0 C-51.14 50.39, -99.58 100.85, -156 160" stroke="#1e1e1e" stroke-width="2" fill="none"></path></g><g transform="translate(338.3308848967995 435.79143124662824) rotate(0 -78 80)"><path d="M-145.94 137.11 C-150.3 143.97, -152.31 150.05, -156 160 M-145.94 137.11 C-150.1 143.78, -152.33 150.94, -156 160" stroke="#1e1e1e" stroke-width="2" fill="none"></path></g><g transform="translate(338.3308848967995 435.79143124662824) rotate(0 -78 80)"><path d="M-133.58 148.94 C-141.61 152.13, -147.36 154.63, -156 160 M-133.58 148.94 C-141.54 151.9, -147.67 155.33, -156 160" stroke="#1e1e1e" stroke-width="2" fill="none"></path></g></g><mask id="mask-W9EfzPR-eu66K4_csPtBB"><rect x="0" y="0" fill="#fff" width="594.3308848967995" height="695.7914312466282"></rect><rect x="204.89549768541337" y="503.29143124662824" fill="#000" width="110.87077442277202" height="25" opacity="1"></rect></mask><g transform="translate(204.89549768541337 503.29143124662824) rotate(0 55.435387211386114 12.5)"><text x="55.43538721138601" y="17.52" font-family="Virgil, Segoe UI Emoji" font-size="20px" fill="#1e1e1e" text-anchor="middle" style="white-space: pre;" direction="ltr" dominant-baseline="alphabetic">Not cached</text></g><g stroke-linecap="round" transform="translate(70.33088489679949 602.7914312466282) rotate(0 112.5 31)"><path d="M0 0 C67.76 0.34, 140.16 1.24, 225 0 M0 0 C58.52 0.69, 117.53 1.37, 225 0 M225 0 C225.25 15.06, 226.27 28.41, 225 62 M225 0 C225.72 20.31, 225.23 42.06, 225 62 M225 62 C167.85 62.32, 108.68 61.95, 0 62 M225 62 C172.22 63.42, 117.19 62.6, 0 62 M0 62 C0.23 44.2, -1.73 28.11, 0 0 M0 62 C-0.34 41.89, -0.4 22.38, 0 0" stroke="#1e1e1e" stroke-width="2" fill="none"></path></g><g transform="translate(99.80497069010994 621.2914312466282) rotate(0 83.02591420668955 12.5)"><text x="83.02591420668955" y="17.52" font-family="Virgil, Segoe UI Emoji" font-size="20px" fill="#1e1e1e" text-anchor="middle" style="white-space: pre;" direction="ltr" dominant-baseline="alphabetic">Fetch robots.txt</text></g><g mask="url(#mask-FJOey5oU-Y7Zxulzp0H4g)" stroke-linecap="round"><g transform="translate(69.74358330949781 598.6406375958343) rotate(0 59.46199079731946 -84.9412561222911)"><path d="M0.45 0.31 C4.7 -16.97, 5.82 -75.75, 25.69 -104.17 C45.56 -132.59, 104.08 -159.34, 119.69 -170.19 M-0.77 -0.57 C3.36 -18.14, 5.18 -77.79, 25.11 -105.86 C45.03 -133.93, 103.07 -158.04, 118.77 -168.98" stroke="#1e1e1e" stroke-width="2" fill="none"></path></g><g transform="translate(69.74358330949781 598.6406375958343) rotate(0 59.46199079731946 -84.9412561222911)"><path d="M102.48 -150.01 C108.27 -154.97, 114.33 -162.68, 118.77 -168.98 M102.48 -150.01 C107.04 -155.57, 111.14 -159.92, 118.77 -168.98" stroke="#1e1e1e" stroke-width="2" fill="none"></path></g><g transform="translate(69.74358330949781 598.6406375958343) rotate(0 59.46199079731946 -84.9412561222911)"><path d="M94.1 -164.92 C102.5 -165.15, 111.24 -168.11, 118.77 -168.98 M94.1 -164.92 C100.95 -166.29, 107.43 -166.41, 118.77 -168.98" stroke="#1e1e1e" stroke-width="2" fill="none"></path></g></g><mask id="mask-FJOey5oU-Y7Zxulzp0H4g"><rect x="0" y="0" fill="#fff" width="289.7435833094978" height="868.6406375958343"></rect><rect x="10" y="481.1406375958343" fill="#000" width="169.48716661899556" height="25" opacity="1"></rect></mask><g transform="translate(10 481.1406375958343) rotate(0 119.20557410681727 32.558743877708906)"><text x="84.74358330949778" y="17.52" font-family="Virgil, Segoe UI Emoji" font-size="20px" fill="#1e1e1e" text-anchor="middle" style="white-space: pre;" direction="ltr" dominant-baseline="alphabetic">Cache robots.txt</text></g><g stroke-linecap="round" transform="translate(119.44199600790944 756.1207963259935) rotate(0 103.33333333333337 101.66666666666657)"><path d="M104 0 C142.26 39.39, 176.69 75.51, 206.67 102 M104 0 C134.17 29.64, 165.12 61.19, 206.67 102 M206.67 102 C176.75 130.48, 144.27 160.81, 104 203.33 M206.67 102 C170.33 137.38, 133.7 173.3, 104 203.33 M104 203.33 C79.52 178.17, 56.45 155.98, 0 102 M104 203.33 C80.51 179.62, 55.16 156.37, 0 102 M0 102 C21.91 78.96, 44.06 59.12, 104 0 M0 102 C40.65 61.24, 81.06 20.82, 104 0" stroke="#1e1e1e" stroke-width="2" fill="none"></path></g><g transform="translate(177.66916645737479 820.4541296593268) rotate(0 44.93949621720128 37.5)"><text x="44.93949621720131" y="17.52" font-family="Virgil, Segoe UI Emoji" font-size="20px" fill="#1e1e1e" text-anchor="middle" style="white-space: pre;" direction="ltr" dominant-baseline="alphabetic">Is </text><text x="44.93949621720131" y="42.519999999999996" font-family="Virgil, Segoe UI Emoji" font-size="20px" fill="#1e1e1e" text-anchor="middle" style="white-space: pre;" direction="ltr" dominant-baseline="alphabetic">Request </text><text x="44.93949621720131" y="67.52" font-family="Virgil, Segoe UI Emoji" font-size="20px" fill="#1e1e1e" text-anchor="middle" style="white-space: pre;" direction="ltr" dominant-baseline="alphabetic">Allowed?</text></g><g stroke-linecap="round"><g transform="translate(185.69199600790762 674.8112725164696) rotate(0 17.22222222222217 38.888888888888914)"><path d="M0 0 C7.09 18.27, 17.35 33.9, 34.44 77.78 M0 0 C8.92 23.86, 19.32 47.91, 34.44 77.78" stroke="#1e1e1e" stroke-width="2" fill="none"></path></g><g transform="translate(185.69199600790762 674.8112725164696) rotate(0 17.22222222222217 38.888888888888914)"><path d="M16.46 60.41 C19.91 65.24, 26.47 67.29, 34.44 77.78 M16.46 60.41 C20.84 65.86, 26.25 71.58, 34.44 77.78" stroke="#1e1e1e" stroke-width="2" fill="none"></path></g><g transform="translate(185.69199600790762 674.8112725164696) rotate(0 17.22222222222217 38.888888888888914)"><path d="M31.83 52.91 C31.82 59.55, 34.92 63.28, 34.44 77.78 M31.83 52.91 C31.49 60.56, 32.24 68.56, 34.44 77.78" stroke="#1e1e1e" stroke-width="2" fill="none"></path></g></g><mask></mask><g mask="url(#mask-XLedzb_Lb5xj34wyA3I7Z)" stroke-linecap="round"><g transform="translate(334.13644045235196 437.8390502942473) rotate(0 -35.38553146412738 156.69279144653328)"><path d="M-0.67 0.15 C2.47 26.85, 34.96 107.69, 19.02 159.9 C3.08 212.11, -77.42 287.7, -96.32 313.42 M1.18 -0.81 C4.68 25.59, 37.05 105.81, 21.22 158.31 C5.38 210.81, -74.1 288.05, -93.83 314.2" stroke="#1e1e1e" stroke-width="2" fill="none"></path></g><g transform="translate(334.13644045235196 437.8390502942473) rotate(0 -35.38553146412738 156.69279144653328)"><path d="M-84.92 290.84 C-87.5 296.45, -88.85 304.1, -93.83 314.2 M-84.92 290.84 C-86.67 295.17, -87.66 300.8, -93.83 314.2" stroke="#1e1e1e" stroke-width="2" fill="none"></path></g><g transform="translate(334.13644045235196 437.8390502942473) rotate(0 -35.38553146412738 156.69279144653328)"><path d="M-71.99 302.04 C-78.59 304.08, -83.97 308.23, -93.83 314.2 M-71.99 302.04 C-76.63 303.94, -80.39 307.17, -93.83 314.2" stroke="#1e1e1e" stroke-width="2" fill="none"></path></g></g><mask id="mask-XLedzb_Lb5xj34wyA3I7Z"><rect x="0" y="0" fill="#fff" width="549.6919960079076" height="852.2834947386917"></rect><rect x="319.91241236463577" y="584.2279391831362" fill="#000" width="68.44805617543241" height="25" opacity="1"></rect></mask><g transform="translate(319.91241236463577 584.2279391831362) rotate(0 -21.16150337641119 10.303902557644363)"><text x="34.224028087716206" y="17.52" font-family="Virgil, Segoe UI Emoji" font-size="20px" fill="#1e1e1e" text-anchor="middle" style="white-space: pre;" direction="ltr" dominant-baseline="alphabetic">Cached</text></g><g mask="url(#mask-rd0RKwCmjAjJK2tzTDkyY)" stroke-linecap="round"><g transform="translate(227.47552805207147 968.8885098482351) rotate(0 -0.39596430376423086 40.91070396581466)"><path d="M-0.04 -0.82 C0.1 12.71, 0.67 67.63, 0.73 81.48 M-1.52 1.36 C-1.47 15.01, -0.07 68.94, 0.13 82.65" stroke="#1e1e1e" stroke-width="2" fill="none"></path></g><g transform="translate(227.47552805207147 968.8885098482351) rotate(0 -0.39596430376423086 40.91070396581466)"><path d="M-8.91 59.34 C-7.6 67.19, -4.78 73.25, 0.13 82.65 M-8.91 59.34 C-6.33 66.67, -3.41 73.35, 0.13 82.65" stroke="#1e1e1e" stroke-width="2" fill="none"></path></g><g transform="translate(227.47552805207147 968.8885098482351) rotate(0 -0.39596430376423086 40.91070396581466)"><path d="M8.19 58.98 C4.53 66.93, 2.4 73.1, 0.13 82.65 M8.19 58.98 C5.56 66.46, 3.27 73.25, 0.13 82.65" stroke="#1e1e1e" stroke-width="2" fill="none"></path></g></g><mask id="mask-rd0RKwCmjAjJK2tzTDkyY"><rect x="0" y="0" fill="#fff" width="327.5542539366511" height="1151.0641552795205"></rect><rect x="211.4582488530575" y="997.4763325638778" fill="#000" width="32.11328428260787" height="25" opacity="1"></rect></mask><g transform="translate(211.4582488530575 997.4763325638778) rotate(0 15.621314895249725 12.322881250171918)"><text x="16.056642141303936" y="17.52" font-family="Virgil, Segoe UI Emoji" font-size="20px" fill="#1e1e1e" text-anchor="middle" style="white-space: pre;" direction="ltr" dominant-baseline="alphabetic">Yes</text></g><g mask="url(#mask-MjIH5xOLxeoFaKyRo2wa0)" stroke-linecap="round"><g transform="translate(304.27929759520975 813.3668280720248) rotate(0 116.17926364448954 -329.9170108792844)"><path d="M0.7 -0.14 C34.59 -41.76, 165.18 -179.39, 203.75 -249.22 C242.32 -319.06, 230.78 -364.21, 232.13 -419.15 C233.48 -474.09, 229.19 -538.8, 211.84 -578.87 C194.49 -618.94, 142.01 -646.34, 128.04 -659.57 M-0.39 -1.25 C33.26 -43.26, 163.83 -181.46, 202.52 -250.94 C241.2 -320.42, 230.22 -363.64, 231.73 -418.14 C233.23 -472.64, 229 -537.66, 211.56 -577.92 C194.11 -618.18, 141.27 -646.16, 127.04 -659.7" stroke="#1e1e1e" stroke-width="2" fill="none"></path></g><g transform="translate(304.27929759520975 813.3668280720248) rotate(0 116.17926364448954 -329.9170108792844)"><path d="M150.95 -652.37 C142.71 -655.58, 136.24 -655.96, 127.04 -659.7 M150.95 -652.37 C145.74 -655.1, 139.7 -655.85, 127.04 -659.7" stroke="#1e1e1e" stroke-width="2" fill="none"></path></g><g transform="translate(304.27929759520975 813.3668280720248) rotate(0 116.17926364448954 -329.9170108792844)"><path d="M140.64 -638.72 C135.79 -646.55, 132.77 -651.49, 127.04 -659.7 M140.64 -638.72 C138.15 -644.86, 134.7 -649.04, 127.04 -659.7" stroke="#1e1e1e" stroke-width="2" fill="none"></path></g></g><mask id="mask-MjIH5xOLxeoFaKyRo2wa0"><rect x="0" y="0" fill="#fff" width="635.7078690237809" height="1571.9382566434533"></rect><rect x="518.9334038444989" y="377.2953995005963" fill="#000" width="33.548930358564" height="35" opacity="1"></rect></mask><g transform="translate(518.9334038444989 377.2953995005963) rotate(0 -98.47484260479962 106.15441769214402)"><text x="16.774465179282" y="24.528" font-family="Virgil, Segoe UI Emoji" font-size="28px" fill="#1e1e1e" text-anchor="middle" style="white-space: pre;" direction="ltr" dominant-baseline="alphabetic">No</text></g></svg>